<svg xmlns="http://www.w3.org/2000/svg" viewBox="0 0 1920 1080"><defs><style>.cls-1{fill:#dbc78b;}.cls-2,.cls-3{fill:#9a3433;}.cls-2{stroke:#9a3433;stroke-miterlimit:10;}</style></defs><title>Artboard 1</title><g id="Square_Background" data-name="Square Background"><rect class="cls-1" width="383" height="1080"/><line class="cls-2" x1="45" y1="243" x2="349" y2="243"/><rect class="cls-1" x="383.5" y="0.5" width="1536" height="1079"/><path class="cls-1" d="M1919,1V1079H384V1H1919m1-1H383V1080H1920V0Z"/></g><g id="Signature"><g id="Shape_3" data-name="Shape 3"><path class="cls-3" d="M310,35.44q1.21,49.22,2.45,98.43a11.68,11.68,0,0,1-.28,3.61c-.55,1.77-1.89,1.49-2.6,0a19.63,19.63,0,0,1-1.19-5.82c-3.27-30.49-6.49-61.41-13.35-88.85,1.52,5.16,3,10.37,4.58,15.52a95.72,95.72,0,0,0-4-17.62c-.53.61-1.06,1.27-1.6,1.94q1.94,41.07,3.85,82.19c.08,1.61.05,3.71-.66,4.27-1,.83-1.62-2.22-1.74-4.49q-1.94-37-3.85-74c-.26-4.93-.28-11,1.64-13.58a7.42,7.42,0,0,0,.74,4.71c-.41-1.77.66-3.77,1.54-3.38s1.47,2.22,1.95,3.88c5.37,18.57,7.85,40.35,10.26,61.69,1.19,10.58,2.35,21.11,3.54,31.7q-1.1-46-2.25-92c-.08-2.93-.05-6.37,1-8.2m-16.11,32.2c-.23-4.38-.45-8.81-.68-13.19-.1-2.38-.23-4.76-.36-7.09a77.65,77.65,0,0,0,1,20.28M303.05,79a74.13,74.13,0,0,0-2.81-18q1.11,9.23,2.81,18m-7.21,28.7a88.78,88.78,0,0,0,.76,19.13l-.76-19.13m-2.13-31.25c.23,4.1.46,8.25.68,12.41,0,.61.21,1.39.46,1.11a65.08,65.08,0,0,0-1.14-13.52m1.6,28a60.63,60.63,0,0,0-.26-11.75,62.26,62.26,0,0,0,.26,11.75M305,95a52.59,52.59,0,0,0-.94-9.42A29.6,29.6,0,0,0,305,95m3.54,25.22c.18-.5-.27-.94-.48-.55a26.74,26.74,0,0,0,.91,4.71,9.36,9.36,0,0,0-.4-4.16"/><path class="cls-3" d="M256.18,34.85a2.73,2.73,0,0,1,2.43-1.05c3.17,0,6.36,0,9.52,0a1.52,1.52,0,0,1,1.35.49,6.31,6.31,0,0,1,.63,3.83A8.49,8.49,0,0,1,269,41.56c-1.22-3.1-3.39-2.94-5.27-2.6a28.9,28.9,0,0,1-8.71.16,9.4,9.4,0,0,1,1.19-4.27"/><path class="cls-3" d="M309.84,111.76c-1-11-1.22-22.28-1.42-33.48-.23-12.74-.45-25.43-.68-38.18,0-1.11.35-2.77.76-2.05a95.05,95.05,0,0,0,0,12.63c.91,20.29,1.11,40.68,1.34,61.08"/><path class="cls-3" d="M166,41.1c.78-.17,1.06,2.16,1.08,3.88q.27,35.82.56,71.66c0,4.54.08,9.14.1,13.69a15.26,15.26,0,0,1-.45,4.93c-.46,1.39-1.6,1.77-2,.28a9.26,9.26,0,0,1-.18-1.89q-.64-44.39-.07-88.9c0-1.55.23-3.54.94-3.65m-.21,52a14.19,14.19,0,0,0,.26,4.88,18.52,18.52,0,0,0,.15-4.71,1.49,1.49,0,0,0-.23-.72c-.13-.11-.3.28-.2.5"/><path class="cls-3" d="M265.07,41.21q1.67,45.55,2.53,91.33c-.83.45-1.67,1-2.5,1.45q-1-46.32-2-92.67c.66,0,1.29-.06,1.95-.11m.05,52.65a75.6,75.6,0,0,0,.31,8.92,32.8,32.8,0,0,0-.31-8.92m-.38-20.79a12.28,12.28,0,0,0,.1,5.33,9.93,9.93,0,0,0,0-5.38m1,56.92a9.63,9.63,0,0,0,0-5.65,27.32,27.32,0,0,0,0,5.65"/><path class="cls-3" d="M282.8,132.65a25.5,25.5,0,0,1-.33,5.6c-.36,1.72-1.29,3-2.1,2.39q-.89-50.71-1.8-101.37a16.53,16.53,0,0,1,.15-3c.25-1.38,1-2.32,1.65-2.16a108.14,108.14,0,0,1,.83,13.47q.8,42.57,1.6,85.07m-2.16-60.52a136.65,136.65,0,0,0-1.21-18.68,100.65,100.65,0,0,0,1.21,18.68m-.3,2.39a49.19,49.19,0,0,0,.3,10.58,56.43,56.43,0,0,0-.3-10.58m.25,14.3a27.62,27.62,0,0,0,.08,9.47,76.72,76.72,0,0,0-.08-9.47m0,15.18a34.83,34.83,0,0,0,.28,8.48,27.28,27.28,0,0,0-.28-8.48m.45,14a15.63,15.63,0,0,0,.21,4.22q.15-4.5-.08-9A29,29,0,0,0,281,118"/><path class="cls-3" d="M176.85,124.73c.1-2.55.58-5.93,1.77-5.82,0,3.27,0,6.54.08,9.87a9.87,9.87,0,0,0,.43,3.6c.73,1.66,2,.55,2.88-.89,4.18-6.93,6.54-18.45,6.64-30a93.29,93.29,0,0,0-5.27-31.76c-2.3-6.26-5.42-12.86-4.89-20.84.41-6.54,3.57-11.42,6.54-10.53s5.39,6.93,5.59,13.52c.08,2.16-1.31,3.38-2.2,2.33S187.1,51,186.8,48.85s-.68-4.32-1.49-5.54c-1.32-2.05-3.35-.16-4,3a22.54,22.54,0,0,0,.54,10.08,61.67,61.67,0,0,0,3.09,8C188.88,74.07,191.26,87,191,100s-3.21,25.77-8.1,33.09c-1.47,2.27-3.54,3.93-5,1.49-1.27-2.16-1.24-6.31-1.09-9.86m12.53-73.44A46.47,46.47,0,0,0,187,42.7c-.26-.66-.71-1.27-1-.66,1.11,3.1,2.23,6.15,3.34,9.25M186,72c-.08,1.89.41,3.88,1.19,4.71a16.38,16.38,0,0,0-1.06-5"/><path class="cls-3" d="M201.51,131.55a81.74,81.74,0,0,1,16.84-.23c-1.59,2.83-3.8,3.05-5.85,3.16-4.76.23-9.52.5-14.28.72,1-4.26,1.09-9.25,1.14-14.07q.34-39.33.71-78.7c0-2.28,1.42-2.94,2.45-2.89L216,40c.45,2.05-1.07,3.44-2.13,3.33l-10-.67c-1.19-.11-1.62,3.49-1.62,6.15,0,10.7,0,21.34,0,32a11,11,0,0,1,9.24-1.5A2.7,2.7,0,0,1,210,82.28c-2.58,1.16-5.19,2.27-7.8,3.43.35,15.3.13,30.65-.66,45.84m-.66-35.42q-.37,13.64-.27,27.27a240.89,240.89,0,0,0,.27-27.27"/><path class="cls-3" d="M152.18,137.37c-3.62-17.85-1.06-39.58-4.76-57.37-.48-2.38-1.14-4.82-2.17-6.2s-2.51-1.5-3.35.44a17.28,17.28,0,0,0-.86,5.54c-.68,15.46-1.06,31-1.06,46.5,0,5.54-.56,12.69-3,13.58q1.41-49.05,2.81-98c1.85.66,3.34-3.44,5.17-4.49,2.78-1.56,5.39,4.93,5.47,11.25s-1.55,12-3.09,17.23c-.66,2.22.25,4.88,1,6.93,3.42,9.65,3.6,22.78,3.85,34.92s1,25.55,5,33.86c-.48,2.22-1.95,2.72-2.93,1.55s-1.6-3.49-2.06-5.7m-6.5-95.83c-1.35-1.17-2.86,0-4.21,1.22q.19,14.3-.17,28.6c1.39-.23,2.71-1.5,3.74-3.55,1.75-3.49,2.46-8.81,2.74-14a36.93,36.93,0,0,0-.13-7c-.28-2.27-1-4.38-2-5.32"/><path class="cls-3" d="M120,68.14c2.94.33,5.52,4.82,7,10.42s2,12.14,2.23,18.57c.35,8.87.2,18-1.29,26.32s-4.51,15.58-8.46,17.85c-2,1.16-4.23,1.11-6,3.6q-.18-48.63-.38-97.38c0-1.94,0-4.15.69-5.48,1.41-2.77,2.86-5.6,4.6-7.15s3.88-1.66,5.4.83c2.38,3.93,2.1,12.08.91,18.12A56.33,56.33,0,0,1,120,68.14m-4.2,11.14q0,29.35-.1,58.7c2.86,3,6.43-.34,8.36-5.82s2.53-12.64,2.88-19.51a134.23,134.23,0,0,0-.2-21c-.71-6.88-2.35-13.42-5-17.35-.92-1.39-2-2.38-3.07-2.38s-2.2,1.33-2.63,3.54a20.22,20.22,0,0,0-.23,3.77m.36-37c-.54.78-.64,2.39-.66,3.83-.15,8.31,0,16.74.4,25C119.29,67.75,122,60.88,123,53a31,31,0,0,0-.4-11.37c-.94-3.32-3.09-5.09-4.59-2.93-.7,1-1.14,2.66-1.84,3.65"/><path class="cls-3" d="M322.4,42.7q.53,15.79,1,31.59a5.25,5.25,0,0,1,5.92-1.1c-.2,2.55-1.74,3.1-2.93,3.15s-2.74,1-2.76,3.5q-.12,19.86-.21,39.74a30.64,30.64,0,0,0,.38,6.26c.38,1.94,1.29,3.54,2.26,3.27,6-1.72,12.15-3.49,17.9.39a121.49,121.49,0,0,1-19.8,3c-1.5,0-3.5-.94-3.45-4.16q.54-42.39-.7-84.74c-.08-2.49-.23-5.38-1.17-6.87A120.07,120.07,0,0,1,338.66,32c.73-.11,1.82,1.33,1.26,2.38-5.42,1.61-10.81,3.16-16.23,4.77a1.41,1.41,0,0,0-1,.88,7.16,7.16,0,0,0-.25,2.66m-.3,86.35c.2.45.55.11.6-.44a66,66,0,0,1-.48-10c.08-11.25.15-22.44.23-33.69a56.66,56.66,0,0,0-.2-6.66c-.28-.22-.43.73-.43,1.39q0,17-.08,33.92c0,5.15,0,10.36.36,15.46m0-59.85c-.3-9-.58-18-.86-27,0-1.05-.33-2.43-.76-2.05.51,11.09.89,22.23,1.17,33.31a10.26,10.26,0,0,0,.45-4.26"/><path class="cls-3" d="M72.66,153.33c-7.49-16.8-3.52-47.83-10.76-65.12-1.75-4.22-5-7-6.73-2.83-1,2.33-1,5.93-.94,9.14q.42,24.28.83,48.5c-.76,1.94-2.3,1-3-1.05a25.91,25.91,0,0,1-.68-7.32c0-17.46,0-35,.07-52.43,0-2.61-.3-6-1.49-6.26,0-6.38,0-12.75,0-19.12,0-1.61.12-3.55.81-4.05,2.43-1.88,3.44-8.37,5.64-11.25,2.36-3.1,5.67-1,7.32,3.82S65.62,57,64.71,62.6a49.62,49.62,0,0,1-4.78,14.52c5.36,5.6,7.54,19.79,8.53,32.7s1.52,26.83,5.37,36.8a17,17,0,0,1,1.29,4.32c.2,1.67-.2,3.88-1,4.05-.56.11-1.07-.78-1.45-1.66M52.87,57.11c0,1.61.05,3.27.13,4.88l.91,18c.08,1.16.66,1.88,1.19,1.77s1-.72,1.44-1.33a35.74,35.74,0,0,0,3.62-6,35.26,35.26,0,0,0,2.69-10c.66-5,.48-10.75-1-14.8s-4.39-5.76-6.33-2.77C54,49.08,53,53,52.87,57.11m.38,50.72A53,53,0,0,0,53,119.52a56.35,56.35,0,0,0,.23-11.69m-.2,22.39c.12,1.38.28,2.77.43,4.15a42.33,42.33,0,0,0-.15-9.14,7,7,0,0,0-.08,4.71m0-27.71a84.6,84.6,0,0,0,0-11.7,108.72,108.72,0,0,0,0,11.7m-.38-27.44a2.67,2.67,0,0,1-.23-1.66c-.2-.39-.56-.44-.76-.06a24.79,24.79,0,0,0,.83,4.83,12.84,12.84,0,0,0,.16-3.11"/><path class="cls-3" d="M243,126.56c-.91-28.1-1.11-56.31-.56-84.47.05-2.16.69-5.15,1.57-4.21.48.56.56,1.94.56,3.1q.3,49.89.63,99.77c-.93,2.82-3,.55-4-2.22-2.38-6.71-3.31-15.24-4.2-23.5q-2.78-26.27-5.57-52.54A110.39,110.39,0,0,1,230.56,45c-1.42,4-1.5,9.48-1.5,14.52q-.1,36.49-.2,73.05a23.71,23.71,0,0,1-.43,5.6c-.41,1.72-1.34,3-2.15,2.33.28-30.6.55-61.25,0-91.84-.07-3.71-.1-7.82.91-10.86s3.55-3.66,4.28-.28q4,37.67,7.9,75.26c.56,5.38,1.4,11.48,3.7,13.75M228,49.8a70.31,70.31,0,0,1,.41-10.09c.38.5.91.33,1.24-.33-.23-1-.91-1.11-1.34-.5a6.25,6.25,0,0,0-.79,2.77A24.45,24.45,0,0,0,228,49.8M228,71.08a69.78,69.78,0,0,0-.25-11.31,77.91,77.91,0,0,0,.1,11.64c-.07-.22-.15.33,0,.33s.17-.38.17-.66m13.32,57.09c-.25-1.5-.91-2.72-1.64-2.94a9.5,9.5,0,0,1,.4,4c.18.23.46-.05.51-.49.1.6.2,1.16.3,1.71a3.41,3.41,0,0,1,.18-1.44c.18-.33.56-.11.51.39.17-.44.33-.89.48-1.33-.2-.44-.56-.39-.74.06M244,108.55a14.59,14.59,0,0,0-.33-5.38,41.15,41.15,0,0,0,.28,9,25.22,25.22,0,0,0,.1-3.6m-.66-27.66a96,96,0,0,0-.23-10.86,51.75,51.75,0,0,0,.23,10.86"/></g><rect class="cls-3" y="540" width="383" height="540"/></g></svg>